<svg width="24" height="24" viewBox="0 0 24 24" fill="none" xmlns="http://www.w3.org/2000/svg">
<path fill-rule="evenodd" clip-rule="evenodd" d="M11.0538 7.09211C9.81153 4.48921 6.26272 4.10705 4.49473 6.38578C3.08663 8.20067 3.28994 10.7888 4.96416 12.3615L11.9168 18.8928C11.9479 18.922 11.9752 18.9477 12 18.9707C12.0247 18.9477 12.0521 18.922 12.0832 18.8928L19.0358 12.3615C20.71 10.7888 20.9133 8.20067 19.5052 6.38578C17.7372 4.10705 14.1884 4.48921 12.9461 7.09211L12 9.07453L11.0538 7.09211ZM12 5.7324C10.0064 2.77942 5.59003 2.52707 3.30961 5.46629C1.42723 7.89247 1.69902 11.3523 3.93715 13.4548L10.9073 20.0025C11.0115 20.1005 11.1253 20.2075 11.2327 20.2902C11.3562 20.3853 11.5288 20.4953 11.7593 20.5406C11.9182 20.5718 12.0817 20.5718 12.2407 20.5406C12.4711 20.4953 12.6438 20.3853 12.7673 20.2902C12.8747 20.2075 12.9885 20.1005 13.0927 20.0025L20.0628 13.4548C22.3009 11.3523 22.5727 7.89247 20.6904 5.46629C18.4099 2.52707 13.9935 2.77942 12 5.7324Z" fill="#121212"/>
</svg>
